<svg width="40" height="40" viewBox="0 0 40 40" fill="none" xmlns="http://www.w3.org/2000/svg">
<rect width="40" height="40" rx="10" fill="url(#paint0_linear_2_8076)"/>
<path d="M30.9731 8.60221C30.2419 7.9305 27.2948 5.79685 20.7268 5.77051C20.7268 5.77051 12.9825 5.30515 9.20728 8.75587C7.10602 10.85 6.37036 13.9144 6.29107 17.7119C6.21178 21.5095 6.11046 28.6348 13.0001 30.5621H13.0089L13.0045 33.508C13.0045 33.508 12.9605 34.7021 13.749 34.9436C14.7005 35.2377 15.26 34.3333 16.1718 33.3543C16.6696 32.8187 17.3612 32.0285 17.881 31.427C22.5901 31.8221 26.2156 30.9177 26.6253 30.786C27.5768 30.4787 32.9599 29.7894 33.8321 22.6729C34.7351 15.3368 33.3916 10.6963 30.9731 8.60221ZM31.7705 22.1461C31.0304 28.0948 26.6649 28.468 25.8588 28.727C25.5152 28.8368 22.3346 29.627 18.3348 29.3636C18.3348 29.3636 15.3525 32.9504 14.423 33.8811C14.2776 34.026 14.1058 34.0831 13.9913 34.0568C13.8327 34.0172 13.7886 33.8285 13.7886 33.5519C13.793 33.1568 13.8151 28.6568 13.8151 28.6568C7.98705 27.0456 8.33066 20.9827 8.39673 17.8085C8.46281 14.6344 9.06191 12.0354 10.8372 10.2881C14.0309 7.40807 20.6078 7.83831 20.6078 7.83831C26.1627 7.86026 28.8234 9.52416 29.4402 10.0861C31.4886 11.8334 32.5326 16.0173 31.7705 22.1461Z" fill="white"/>
<path d="M21.2284 14.8933C21.0213 14.8802 20.8495 15.0382 20.8363 15.2446C20.8275 15.4465 20.9817 15.6221 21.1887 15.6353C22.4001 15.6968 22.9948 16.3114 23.0565 17.5714C23.0653 17.7689 23.2283 17.9226 23.4266 17.9226C23.431 17.9226 23.4398 17.9226 23.4442 17.9226C23.6468 17.9138 23.8054 17.7382 23.7966 17.5363C23.7173 15.8855 22.8319 14.9768 21.2284 14.8933Z" fill="white"/>
<path d="M25.3269 18.5548C25.3313 18.5548 25.3313 18.5548 25.3357 18.5548C25.5384 18.5548 25.7014 18.3924 25.7058 18.1948C25.7366 16.7505 25.3005 15.5256 24.4019 14.5466C23.5076 13.5719 22.2522 13.0232 20.6707 12.909C20.4681 12.8958 20.2875 13.0451 20.2742 13.2514C20.261 13.4534 20.4108 13.6334 20.6178 13.6466C22.0231 13.7475 23.0803 14.2085 23.8512 15.0471C24.6265 15.89 24.9877 16.9129 24.9613 18.1773C24.9613 18.3792 25.1243 18.5505 25.3269 18.5548Z" fill="white"/>
<path d="M19.9955 10.9863C19.7885 10.9863 19.6211 11.1488 19.6211 11.3551C19.6211 11.5614 19.7841 11.7283 19.9911 11.7283C21.947 11.7414 23.6078 12.3956 24.9161 13.6688C26.2244 14.9419 26.8984 16.7156 26.916 18.9502C26.916 19.1521 27.0834 19.319 27.2861 19.319C27.2861 19.319 27.2861 19.319 27.2905 19.319C27.4975 19.319 27.6605 19.1521 27.6605 18.9458C27.6385 16.5048 26.8896 14.5512 25.4359 13.1375C23.9822 11.7239 22.1497 10.9995 19.9955 10.9863Z" fill="white"/>
<path d="M26.7869 23.1822C26.7825 23.1822 25.9367 22.4754 25.5226 22.1724C25.0821 21.8607 24.6284 21.571 24.1614 21.3076C23.5359 20.9607 22.8972 21.1759 22.6328 21.5183L22.0866 22.2032C21.8047 22.55 21.2849 22.5061 21.2849 22.5061C17.47 21.5359 16.448 17.6812 16.448 17.6812C16.448 17.6812 16.404 17.1632 16.752 16.8822L17.4392 16.3378C17.7828 16.0744 17.9986 15.4378 17.6506 14.8144C17.3819 14.349 17.0956 13.8925 16.7828 13.4578C16.4788 13.0452 15.774 12.1978 15.7696 12.1978C15.4304 11.7983 14.9282 11.7017 14.3996 11.9783C14.3952 11.9783 14.3908 11.9827 14.3864 11.9827C13.8622 12.2856 13.3864 12.6676 12.9811 13.1198C12.9767 13.1242 12.9767 13.1242 12.9723 13.1286C12.6464 13.5193 12.4569 13.9056 12.4129 14.2832C12.4041 14.3403 12.3997 14.3973 12.4041 14.45C12.4041 14.6169 12.4261 14.7837 12.479 14.9417L12.4966 14.9549C12.6596 15.5388 13.0737 16.509 13.9679 18.129C14.4789 19.0642 15.0736 19.9554 15.7344 20.7939C16.0648 21.2154 16.4216 21.6149 16.8004 21.9924C16.8136 22.0056 16.8268 22.0188 16.8401 22.0319L16.8797 22.0715L16.9194 22.111L16.959 22.1505C17.3378 22.528 17.7431 22.8837 18.1616 23.2129C19.003 23.8758 19.8972 24.4641 20.8355 24.9734C22.461 25.8646 23.4346 26.2773 24.0205 26.4397L24.0337 26.4573C24.1923 26.51 24.3597 26.5363 24.5271 26.5319C24.5843 26.5363 24.6416 26.5319 24.6945 26.5232C25.0733 26.4792 25.461 26.2905 25.853 25.9656C25.8574 25.9612 25.8574 25.9612 25.8618 25.9568C26.3156 25.5529 26.6988 25.0832 27.0028 24.5563C27.0028 24.5519 27.0072 24.5475 27.0072 24.5432C27.2847 24.0207 27.1922 23.5202 26.7869 23.1822Z" fill="white"/>
<defs>
<linearGradient id="paint0_linear_2_8076" x1="20" y1="0" x2="20" y2="40" gradientUnits="userSpaceOnUse">
<stop stop-color="#A55CEE"/>
<stop offset="1" stop-color="#854ABA"/>
</linearGradient>
</defs>
</svg>
